<svg width="20" height="20" viewBox="0 0 20 20" fill="none" xmlns="http://www.w3.org/2000/svg">
<path d="M18.8117 4.87422L15.0007 1.06328C14.8249 0.8875 14.6093 0.758594 14.3749 0.688281V0.625H1.24994C0.835095 0.625 0.499939 0.960156 0.499939 1.375V18.625C0.499939 19.0398 0.835095 19.375 1.24994 19.375H18.4999C18.9148 19.375 19.2499 19.0398 19.2499 18.625V5.93359C19.2499 5.53516 19.0929 5.15547 18.8117 4.87422ZM6.87494 2.3125H12.8749V4.75H6.87494V2.3125ZM17.5624 17.6875H2.18744V2.3125H5.37494V5.5C5.37494 5.91484 5.7101 6.25 6.12494 6.25H13.6249C14.0398 6.25 14.3749 5.91484 14.3749 5.5V2.82344L17.5624 6.01094V17.6875ZM9.87494 8.35938C8.01166 8.35938 6.49994 9.87109 6.49994 11.7344C6.49994 13.5977 8.01166 15.1094 9.87494 15.1094C11.7382 15.1094 13.2499 13.5977 13.2499 11.7344C13.2499 9.87109 11.7382 8.35938 9.87494 8.35938ZM9.87494 13.6094C8.839 13.6094 7.99994 12.7703 7.99994 11.7344C7.99994 10.6984 8.839 9.85938 9.87494 9.85938C10.9109 9.85938 11.7499 10.6984 11.7499 11.7344C11.7499 12.7703 10.9109 13.6094 9.87494 13.6094Z" fill="#8C8C8C"/>
</svg>
