<svg width="18" height="20" viewBox="0 0 18 20" fill="none" xmlns="http://www.w3.org/2000/svg">
<path d="M14.4999 13.5625C13.832 13.5625 13.2156 13.7969 12.7328 14.1883L7.8765 10.675C7.95782 10.2287 7.95782 9.77133 7.8765 9.325L12.7328 5.81172C13.2156 6.20312 13.832 6.4375 14.4999 6.4375C16.0515 6.4375 17.3124 5.17656 17.3124 3.625C17.3124 2.07344 16.0515 0.8125 14.4999 0.8125C12.9484 0.8125 11.6874 2.07344 11.6874 3.625C11.6874 3.89687 11.7249 4.15703 11.7976 4.40547L7.18509 7.74531C6.50072 6.83828 5.41322 6.25 4.18744 6.25C2.11556 6.25 0.437439 7.92812 0.437439 10C0.437439 12.0719 2.11556 13.75 4.18744 13.75C5.41322 13.75 6.50072 13.1617 7.18509 12.2547L11.7976 15.5945C11.7249 15.843 11.6874 16.1055 11.6874 16.375C11.6874 17.9266 12.9484 19.1875 14.4999 19.1875C16.0515 19.1875 17.3124 17.9266 17.3124 16.375C17.3124 14.8234 16.0515 13.5625 14.4999 13.5625ZM14.4999 2.40625C15.1726 2.40625 15.7187 2.95234 15.7187 3.625C15.7187 4.29766 15.1726 4.84375 14.4999 4.84375C13.8273 4.84375 13.2812 4.29766 13.2812 3.625C13.2812 2.95234 13.8273 2.40625 14.4999 2.40625ZM4.18744 12.0625C3.05072 12.0625 2.12494 11.1367 2.12494 10C2.12494 8.86328 3.05072 7.9375 4.18744 7.9375C5.32416 7.9375 6.24994 8.86328 6.24994 10C6.24994 11.1367 5.32416 12.0625 4.18744 12.0625ZM14.4999 17.5938C13.8273 17.5938 13.2812 17.0477 13.2812 16.375C13.2812 15.7023 13.8273 15.1562 14.4999 15.1562C15.1726 15.1562 15.7187 15.7023 15.7187 16.375C15.7187 17.0477 15.1726 17.5938 14.4999 17.5938Z" fill="#8C8C8C"/>
</svg>
